<svg id="Capa_1" data-name="Capa 1" xmlns="http://www.w3.org/2000/svg" viewBox="0 0 1000 1000"><defs><style>.cls-1{fill:#ef6a00;stroke:#ef6a00;stroke-miterlimit:10;stroke-width:1.81px;}.cls-2{fill:#fff;}</style></defs><rect class="cls-1" x="72.32" y="72.32" width="855.36" height="855.36" rx="24.22"/><path class="cls-2" d="M670.22,367.92a17.43,17.43,0,0,0-17.43-17.43h0a9.88,9.88,0,0,0-1.22.12h-139c-.41,0-.8-.12-1.22-.12H497.15a12.09,12.09,0,0,0-1.21.12h-.86a8.37,8.37,0,0,0-8.22,6.8,11.13,11.13,0,0,0-.84,4.21v59.75s0,.06,0,.1V429s0,.07,0,.1V610.82a11,11,0,0,0,2.5,6.95,8.38,8.38,0,0,0,5.54,3.69,10.91,10.91,0,0,0,3.09.49h14.17a11.17,11.17,0,0,0,2.61-.34H649.59a8.41,8.41,0,0,1,1.58.18,8.56,8.56,0,0,0,1.62.16h7.84a9.59,9.59,0,0,0,5.46-1.71,8.49,8.49,0,0,0,2.42-2.43,9.48,9.48,0,0,0,1.71-5.45ZM587.82,529H573.59a14.78,14.78,0,0,0-14.78,14.78v39.34A7.84,7.84,0,0,1,551,591H530.3a7.84,7.84,0,0,1-7.84-7.85V509.39a7.84,7.84,0,0,1,7.84-7.85H635.36a7.84,7.84,0,0,1,7.84,7.85v73.73a7.84,7.84,0,0,1-7.84,7.85H610.45a7.84,7.84,0,0,1-7.85-7.85V543.78A14.78,14.78,0,0,0,587.82,529ZM530.3,436h37a7.85,7.85,0,0,1,7.85,7.84v19.21a7.85,7.85,0,0,1-7.85,7.85h-37a7.84,7.84,0,0,1-7.84-7.85V443.84A7.84,7.84,0,0,1,530.3,436Zm74.25,0h30.81a7.84,7.84,0,0,1,7.84,7.84v19.21a7.84,7.84,0,0,1-7.84,7.85H604.55a7.85,7.85,0,0,1-7.85-7.85V443.84A7.85,7.85,0,0,1,604.55,436Zm30.81-21.56H604.55a7.85,7.85,0,0,1-7.85-7.84V389.1a7.85,7.85,0,0,1,7.85-7.84h30.81a7.84,7.84,0,0,1,7.84,7.84v17.5A7.84,7.84,0,0,1,635.36,414.44Zm-68.06,0h-37a7.84,7.84,0,0,1-7.84-7.84V389.1a7.84,7.84,0,0,1,7.84-7.84h37a7.85,7.85,0,0,1,7.85,7.84v17.5A7.85,7.85,0,0,1,567.3,414.44Z"/><path class="cls-2" d="M825.75,359.53c-11.69-26.2-29.15-48.49-49.42-64a2.31,2.31,0,0,0-3.72,2L774.13,317a1.49,1.49,0,0,1-2.5,1.22c-9.68-9-44.59-38.58-107.34-60.71a1.58,1.58,0,0,0-1.48,2.76c21.65,15.57,70.1,58.73,74.94,135.85a1.92,1.92,0,0,0,3.6.81c5.09-9.45,14-29.7,11.5-51.89a.86.86,0,0,1,.81-1,204.32,204.32,0,0,1,44.65,154.44c-13.43,109.93-113.26,189.9-223.47,179-114-11.29-196.4-113.65-183.46-227.11a204.83,204.83,0,0,1,4.19-24c1.05-4.45,2.27-8.81,3.6-13.12.64-2,1.33-4.15,2.05-6.32.49-1.44,1-2.89,1.5-4.31l.15-.44c.66-1.76,1.36-3.49,2.06-5.23a56.26,56.26,0,0,1,2.9-5.92c3.3-5.74,7.45-9.9,12.37-14.33,7.36-6.61,20.23-20.26,27.14-39.72,9.56-27,8.24-64.45-20.63-93.87a29,29,0,0,0-28.13-7.72c-64.58,17.3-114.64,61.21-138.25,94.9,0,0-22.06,30.87-32.17,59.55l-6.5,3.95a280.06,280.06,0,0,0-50.76,48.08A304.68,304.68,0,0,0,141.83,484c-1.57,2.76-3.11,5.51-4.56,8.23h0c-4.42,8.19-8.32,16.26-11.78,24.21C92,593.11,99.94,656.9,104.4,679.16a8.58,8.58,0,0,0,11.78,6.27c12.76-5.53,35.07-24.7,48.89-90.61q.77-3.63,1.52-7.29c1-5,2.06-10,3.1-15,3.82-18.5,7.75-37,12.72-55.08,11.23-40.92,27.73-79.93,60.07-113l.67-.68.08-.08a4.7,4.7,0,0,1,7.32,5.75l-.68,1.1c-23,37.06-45.09,90.93-46.41,153.93C201,682.07,264.72,757.59,285,778.62a7.6,7.6,0,0,0,12.21-1.79c7.19-13.65,14.35-48.36-18.89-127.41-33.79-80.35-62.41-152.67-3.8-249.59,1-1.7,4.47-2.85,7.44,2.37,5.33,9.35,4,13.5,3.79,14.27-7.22,22-11.64,49.72-11.47,80.19,0,4.77.06,9.53.27,14.26A289.84,289.84,0,0,0,286,579.75q3.27,11.14,7.4,21.93c.35,1,.69,1.89,1.05,2.83h.07c39.29,100,132.39,175,247.68,185,158.16,13.72,299.34-102.6,316.41-260.44A291.56,291.56,0,0,0,825.75,359.53Z"/></svg>