<svg id="Capa_1" data-name="Capa 1" xmlns="http://www.w3.org/2000/svg" viewBox="0 0 962.36 962.36"><defs><style>.cls-1{fill:#ef6a00;stroke:#ef6a00;stroke-miterlimit:10;stroke-width:1.81px;}.cls-2{fill:#fff;}</style></defs><rect class="cls-1" x="0.91" y="0.91" width="960.55" height="960.55" rx="24.22"/><path class="cls-2" d="M691.15,351.68a19.57,19.57,0,0,0-19.57-19.57h0a10.25,10.25,0,0,0-1.37.14H514.08a12.28,12.28,0,0,0-1.36-.14H496.8a12.28,12.28,0,0,0-1.36.14h-1a9.39,9.39,0,0,0-9.22,7.62,12.49,12.49,0,0,0-.95,4.74V411.7s0,.07,0,.11v8.43s0,.07,0,.11v204.1a12.4,12.4,0,0,0,2.81,7.8,9.41,9.41,0,0,0,6.22,4.15,12.46,12.46,0,0,0,3.47.55h15.92a12.39,12.39,0,0,0,2.93-.39H668a9.71,9.71,0,0,1,1.78.2,9.06,9.06,0,0,0,1.82.19h8.81a10.67,10.67,0,0,0,6.12-1.93,9.56,9.56,0,0,0,2.73-2.72,10.75,10.75,0,0,0,1.91-6.12ZM598.62,532.56h-16A16.6,16.6,0,0,0,566,549.16v44.18a8.81,8.81,0,0,1-8.81,8.81H534a8.8,8.8,0,0,1-8.81-8.81v-82.8a8.81,8.81,0,0,1,8.81-8.81H652a8.81,8.81,0,0,1,8.81,8.81v82.8a8.8,8.8,0,0,1-8.81,8.81H624a8.8,8.8,0,0,1-8.81-8.81V549.16A16.6,16.6,0,0,0,598.62,532.56ZM534,428.13h41.55a8.81,8.81,0,0,1,8.81,8.81v21.57a8.81,8.81,0,0,1-8.81,8.81H534a8.8,8.8,0,0,1-8.81-8.81V436.94A8.8,8.8,0,0,1,534,428.13Zm83.37,0H652a8.8,8.8,0,0,1,8.81,8.81v21.57a8.8,8.8,0,0,1-8.81,8.81H617.4a8.81,8.81,0,0,1-8.81-8.81V436.94A8.81,8.81,0,0,1,617.4,428.13ZM652,403.92H617.4a8.81,8.81,0,0,1-8.81-8.81V375.47a8.81,8.81,0,0,1,8.81-8.81H652a8.8,8.8,0,0,1,8.81,8.81v19.64A8.8,8.8,0,0,1,652,403.92Zm-76.42,0H534a8.8,8.8,0,0,1-8.81-8.81V375.47a8.8,8.8,0,0,1,8.81-8.81h41.55a8.81,8.81,0,0,1,8.81,8.81v19.64A8.81,8.81,0,0,1,575.58,403.92Z" transform="translate(-18.82 -18.82)"/><path class="cls-2" d="M865.8,342.25c-13.12-29.41-32.73-54.44-55.49-71.91a2.6,2.6,0,0,0-4.18,2.26l1.71,21.85a1.68,1.68,0,0,1-2.81,1.38c-10.87-10.14-50.07-43.34-120.54-68.18a1.78,1.78,0,0,0-1.66,3.1C707.14,248.23,761.55,296.7,767,383.3a2.16,2.16,0,0,0,4,.92c5.72-10.62,15.75-33.37,12.92-58.28a1,1,0,0,1,.91-1.08A229.4,229.4,0,0,1,835,498.29c-15.09,123.45-127.19,213.26-251,201C456,686.63,363.49,571.68,378,444.26a230.78,230.78,0,0,1,4.71-27c1.17-5,2.55-9.89,4-14.74.72-2.27,1.49-4.65,2.3-7.09.56-1.62,1.09-3.24,1.68-4.84l.18-.5c.73-2,1.53-3.92,2.31-5.87a65.36,65.36,0,0,1,3.25-6.65c3.71-6.44,8.37-11.11,13.9-16.08,8.26-7.44,22.72-22.75,30.47-44.62,10.74-30.27,9.26-72.36-23.16-105.41a32.56,32.56,0,0,0-31.59-8.66c-72.52,19.43-128.73,68.74-155.26,106.57,0,0-24.76,34.66-36.12,66.87l-7.3,4.43a314.64,314.64,0,0,0-57,54A342,342,0,0,0,97.79,482c-1.77,3.1-3.49,6.18-5.13,9.24h0c-5,9.2-9.35,18.26-13.24,27.19C41.82,604.55,50.74,676.19,55.75,701.2a9.65,9.65,0,0,0,13.24,7c14.32-6.22,39.37-27.75,54.89-101.76.57-2.72,1.15-5.45,1.71-8.19,1.16-5.61,2.31-11.26,3.48-16.89,4.29-20.79,8.7-41.54,14.29-61.86,12.61-45.95,31.14-89.76,67.45-126.87.25-.26.5-.52.76-.77l.08-.09a5.29,5.29,0,0,1,8.23,6.46l-.77,1.23C193.3,441.13,168.48,501.62,167,572.36c-2.77,132.09,68.79,216.91,91.6,240.52a8.53,8.53,0,0,0,13.7-2c8.08-15.34,16.12-54.32-21.21-143.08-37.94-90.24-70.08-171.45-4.26-280.29,1.15-1.91,5-3.19,8.35,2.66,6,10.5,4.51,15.16,4.26,16-8.11,24.69-13.07,55.83-12.88,90.05,0,5.36.07,10.7.3,16a325.39,325.39,0,0,0,12.83,77.3c2.44,8.34,5.23,16.55,8.3,24.63.4,1.06.78,2.12,1.18,3.18h.08C313.36,729.7,417.91,813.91,547.37,825.14,725,840.54,883.53,709.92,902.7,532.66A327.33,327.33,0,0,0,865.8,342.25Z" transform="translate(-18.82 -18.82)"/></svg>